HIERARCHY
ROOT SpineBase
{
  OFFSET 0.000000 0.000000 0.000000
  CHANNELS 6 Xposition Yposition Zposition Zrotation Xrotation Yrotation
  JOINT SpineMid
  {
    OFFSET 0.000000 26.306036 0.000000
    CHANNELS 3 Zrotation Xrotation Yrotation
    JOINT SpineShoulder
    {
      OFFSET -0.132025 19.721939 -0.712591
      CHANNELS 3 Zrotation Xrotation Yrotation
      JOINT Neck
      {
        OFFSET -0.070463 6.556980 -0.532499
        CHANNELS 3 Zrotation Xrotation Yrotation
        JOINT Head
        {
          OFFSET 3.009567 11.867349 0.748270
          CHANNELS 3 Zrotation Xrotation Yrotation
          End Site
          {
            OFFSET 0 0 0
          }
        }
      }
      JOINT ShoulderLeft
      {
        OFFSET -11.692890 -2.253230 -6.306322
        CHANNELS 3 Zrotation Xrotation Yrotation
        JOINT ElbowLeft
        {
          OFFSET -6.793966 -16.497104 -2.810631
          CHANNELS 3 Zrotation Xrotation Yrotation
          JOINT WristLeft
          {
            OFFSET 20.767233 2.067117 -7.586200
            CHANNELS 3 Zrotation Xrotation Yrotation
            JOINT HandLeft
            {
              OFFSET 4.899652 1.178590 0.582929
              CHANNELS 3 Zrotation Xrotation Yrotation
              JOINT HandTipLeft
              {
                OFFSET 5.561070 -0.117538 1.578140
                CHANNELS 3 Zrotation Xrotation Yrotation
                End Site
                {
                  OFFSET 0 0 0
                }
              }
              JOINT ThumbLeft
              {
                OFFSET -0.533559 -0.789367 -4.862493
                CHANNELS 3 Zrotation Xrotation Yrotation
                End Site
                {
                  OFFSET 0 0 0
                }
              }
            }
          }
        }
      }
      JOINT ShoulderRight
      {
        OFFSET 11.995213 -1.826528 4.453851
        CHANNELS 3 Zrotation Xrotation Yrotation
        JOINT ElbowRight
        {
          OFFSET 4.848521 -14.386457 4.070433
          CHANNELS 3 Zrotation Xrotation Yrotation
          JOINT WristRight
          {
            OFFSET -14.198195 1.740427 -17.953934
            CHANNELS 3 Zrotation Xrotation Yrotation
            JOINT HandRight
            {
              OFFSET -3.401452 -1.351560 -3.420766
              CHANNELS 3 Zrotation Xrotation Yrotation
              JOINT HandTipRight
              {
                OFFSET -5.533409 -2.260740 -3.011969
                CHANNELS 3 Zrotation Xrotation Yrotation
                End Site
                {
                  OFFSET 0 0 0
                }
              }
              JOINT ThumbRight
              {
                OFFSET -3.826900 -0.683988 -0.091817
                CHANNELS 3 Zrotation Xrotation Yrotation
                End Site
                {
                  OFFSET 0 0 0
                }
              }
            }
          }
        }
      }
    }
  }
  JOINT HipLeft
  {
    OFFSET -5.310084 1.195715 -5.342786
    CHANNELS 3 Zrotation Xrotation Yrotation
    JOINT KneeLeft
    {
      OFFSET -3.459477 -29.787995 -1.171612
      CHANNELS 3 Zrotation Xrotation Yrotation
      JOINT AnkleLeft
      {
        OFFSET -0.919783 -33.058674 7.942107
        CHANNELS 3 Zrotation Xrotation Yrotation
        JOINT FootLeft
        {
          OFFSET 5.768299 -7.078917 0.279544
          CHANNELS 3 Zrotation Xrotation Yrotation
          End Site
          {
            OFFSET 0 0 0
          }
        }
      }
    }
  }
  JOINT HipRight
  {
    OFFSET 5.068453 0.471016 -0.884662
    CHANNELS 3 Zrotation Xrotation Yrotation
    JOINT KneeRight
    {
      OFFSET 0.026040 -28.870542 1.295821
      CHANNELS 3 Zrotation Xrotation Yrotation
      JOINT AnkleRight
      {
        OFFSET -3.888253 -33.186528 4.855514
        CHANNELS 3 Zrotation Xrotation Yrotation
        JOINT FootRight
        {
          OFFSET 3.071237 -1.873038 -11.452783
          CHANNELS 3 Zrotation Xrotation Yrotation
          End Site
          {
            OFFSET 0 0 0
          }
        }
      }
    }
  }
}
MOTION
Frames: 14
Frame Time: 0.033333
24.369848 22.345818 370.898098 25.175307 -3.718185 -16.380728 -0.121091 0.354182 18.025827 -0.445994 -0.001403 1.107383 20.206088 12.125161 -14.219422 0.000000 0.000000 0.000000 -145.979695 -37.746955 -5.780560 132.824688 -12.924093 -7.813321 -0.886557 -15.360439 59.809107 4.410910 29.173616 -26.902694 0.000000 0.000000 0.000000 0.000000 0.000000 0.000000 -56.340322 57.505661 35.241186 -8.844967 -60.116339 -106.899772 38.071006 32.772822 96.503809 -3.620126 -54.618693 -102.833630 0.000000 0.000000 0.000000 0.000000 0.000000 0.000000 -153.463539 22.772959 46.116615 132.960625 -23.013184 64.839714 -12.386006 26.972131 24.907571 0.000000 0.000000 0.000000 -137.831057 22.155706 38.069692 121.794090 -15.917183 56.562161 -19.464012 -0.357203 29.150414 0.000000 0.000000 0.000000
24.141969 22.476003 370.250734 25.004624 -2.528510 -12.021468 -0.170286 -0.154999 13.501277 -0.539542 -0.088457 1.104507 20.791550 10.493692 -13.133494 0.000000 0.000000 0.000000 -145.902762 -36.237987 -5.389477 132.839116 -12.916549 -6.436087 5.819026 -13.925268 53.970625 -4.999652 34.104675 -18.038832 0.000000 0.000000 0.000000 0.000000 0.000000 0.000000 -54.397004 62.506887 39.852233 -33.499290 -66.396369 -124.580153 1.391181 21.020512 27.273945 77.535999 -5.314349 -8.735290 0.000000 0.000000 0.000000 0.000000 0.000000 0.000000 -157.277838 23.829622 48.909383 133.108146 -21.369874 62.432263 6.882795 10.837195 9.173115 0.000000 0.000000 0.000000 -135.806462 18.769784 28.624442 116.499640 -7.679939 42.000261 -18.196059 -15.870208 27.650448 0.000000 0.000000 0.000000
23.929801 22.414040 369.932276 24.738068 -2.044501 -15.940527 -0.226337 -0.203138 17.302460 -0.575662 -0.027581 1.074305 20.518462 8.403985 -11.493179 0.000000 0.000000 0.000000 -144.660249 -35.073137 -4.892113 131.761216 -12.570958 -5.627563 9.825489 -13.388264 49.245560 -12.302939 36.562554 -11.354464 0.000000 0.000000 0.000000 0.000000 0.000000 0.000000 -44.852465 70.530558 42.833926 -80.800380 -63.214479 -158.036423 -15.354147 22.225560 24.129929 78.247919 -10.633941 -20.399789 0.000000 0.000000 0.000000 0.000000 0.000000 0.000000 -157.009588 18.375095 38.790897 131.241956 -18.270252 54.070899 11.719845 4.058970 7.323372 0.000000 0.000000 0.000000 -135.857714 14.149203 22.343603 117.486388 -2.104509 38.697792 -20.165718 -24.384807 27.583661 0.000000 0.000000 0.000000
23.709380 22.240161 369.955802 24.421587 -2.128613 -19.000384 -0.310056 0.070650 20.299717 -0.515208 0.131736 1.032066 18.948200 5.719093 -9.211218 0.000000 0.000000 0.000000 -143.542046 -33.492563 -3.843837 130.065657 -12.322287 -4.377403 16.514845 -12.841787 45.421969 -19.232303 37.388217 -6.190384 0.000000 0.000000 0.000000 0.000000 0.000000 0.000000 -26.194668 76.322191 35.639008 -119.818869 -52.267588 -177.784287 -20.717159 26.363703 20.547361 60.357824 -7.064217 -15.129951 0.000000 0.000000 0.000000 0.000000 0.000000 0.000000 -158.942536 14.870094 33.346351 130.572478 -16.405001 49.778607 25.191072 -12.001847 1.243867 0.000000 0.000000 0.000000 -134.291193 12.043586 20.450269 109.070710 0.821991 35.776408 -16.118571 -34.119550 34.193298 0.000000 0.000000 0.000000
23.427721 22.257967 370.007273 24.046703 -2.457636 -21.546132 -0.354040 0.261738 22.852024 -0.464332 0.107195 1.024466 20.212901 5.229850 -9.026028 0.000000 0.000000 0.000000 -140.739883 -32.588052 -2.382176 127.480528 -11.681825 -3.707843 20.249582 -12.728897 42.668633 -24.286944 37.860537 -0.534353 0.000000 0.000000 0.000000 0.000000 0.000000 0.000000 -2.256082 79.364392 20.192980 -133.884473 -46.727444 -173.037917 -12.209911 26.182738 9.869995 37.504389 -2.124203 -20.220235 0.000000 0.000000 0.000000 0.000000 0.000000 0.000000 -157.001108 13.707755 31.108208 130.456399 -16.541108 50.182843 24.526031 -11.044784 1.183831 0.000000 0.000000 0.000000 -134.359909 12.512408 22.949695 109.312326 -5.780737 39.599855 -13.733740 -25.587008 34.743310 0.000000 0.000000 0.000000
23.093826 22.434304 369.923801 23.791054 -2.887303 -22.889103 -0.420758 0.383810 24.240013 -0.426663 0.356818 0.966197 16.894728 3.047673 -6.857687 0.000000 0.000000 0.000000 -139.329346 -30.817141 -0.694310 126.171200 -11.502763 -2.141706 19.481723 -12.668204 41.757284 -20.612096 34.526175 -2.870896 0.000000 0.000000 0.000000 0.000000 0.000000 0.000000 20.410784 80.431122 3.512244 -138.539322 -45.886435 -162.861331 8.879011 14.678076 -7.927272 17.314397 6.424711 -25.539632 0.000000 0.000000 0.000000 0.000000 0.000000 0.000000 -157.654107 14.125291 32.718404 131.249330 -17.119593 53.147552 18.911829 -1.052877 6.423327 0.000000 0.000000 0.000000 -134.793979 15.081605 28.444183 111.768608 -17.962126 46.147868 -9.277872 -19.176932 32.041012 0.000000 0.000000 0.000000
22.935333 22.549528 370.169113 23.584980 -3.202944 -23.650465 -0.596236 0.620804 24.996107 -0.387742 0.538996 0.922082 10.820659 -1.177971 -3.358544 0.000000 0.000000 0.000000 -136.969464 -29.730953 0.257648 124.263569 -10.944150 -1.560984 21.807412 -12.587128 40.510161 -17.964962 30.244591 -4.019698 0.000000 0.000000 0.000000 0.000000 0.000000 0.000000 43.474919 78.375649 -12.637768 -134.382307 -47.545362 -142.841074 22.131716 -1.714784 -13.940815 10.736384 5.813616 -36.934104 0.000000 0.000000 0.000000 0.000000 0.000000 0.000000 -159.754081 15.068315 35.597247 133.267364 -17.281423 57.145175 6.205504 14.797094 18.027208 0.000000 0.000000 0.000000 -137.594399 18.061571 34.795099 122.180913 -37.149253 57.119018 0.586312 -7.462063 19.330444 0.000000 0.000000 0.000000
22.354340 23.190214 370.051854 23.732307 -3.137955 -25.045521 -0.818715 0.687783 26.353780 -0.416019 0.589285 0.911099 1.789026 -5.622986 -0.332933 0.000000 0.000000 0.000000 -138.607158 -29.912231 -0.505459 125.704810 -11.345484 -1.650316 17.436959 -12.834203 39.465142 -11.009282 24.534248 -6.180193 0.000000 0.000000 0.000000 0.000000 0.000000 0.000000 45.768053 73.432026 -11.113841 -109.848125 -46.070704 -112.730525 40.789112 -29.080401 -25.077263 -43.327531 26.893359 -43.666042 0.000000 0.000000 0.000000 0.000000 0.000000 0.000000 -163.581739 16.223863 38.354547 138.209898 -16.427989 62.716484 -8.003016 23.472847 27.787380 0.000000 0.000000 0.000000 -133.780343 21.973594 40.578465 140.716919 -56.041108 79.847159 9.691975 9.438237 6.902593 0.000000 0.000000 0.000000
23.535025 22.354070 370.287186 26.421538 -0.611114 -24.231250 -0.938953 0.967102 25.045492 -0.375562 0.678628 1.011033 -1.715203 -13.777816 2.703617 0.000000 0.000000 0.000000 -150.571712 -10.432636 11.423563 140.142286 -10.148280 25.853109 22.267805 -13.305633 41.302396 -13.908627 26.330475 -5.103827 0.000000 0.000000 0.000000 0.000000 0.000000 0.000000 45.962824 69.061313 -8.262545 -86.157422 -27.093869 -84.750517 133.707061 -48.860302 44.389118 -167.061517 27.491790 3.465744 0.000000 0.000000 0.000000 0.000000 0.000000 0.000000 -168.043832 19.066812 38.027362 142.092529 -13.927508 63.364758 -31.780541 30.517256 45.937013 0.000000 0.000000 0.000000 -133.592137 22.468689 34.494368 151.178315 -59.136077 85.699232 11.829583 16.175330 -1.425354 0.000000 0.000000 0.000000
23.438681 23.879234 370.799218 25.705035 -1.263349 -26.786196 -1.056587 0.937202 27.713158 -0.243064 0.687273 0.986281 -5.222893 -15.932374 3.663340 0.000000 0.000000 0.000000 -151.809808 -1.359684 20.097165 143.438098 -5.751805 41.321214 17.719884 -14.401421 40.335528 -10.927844 24.806711 -4.390108 0.000000 0.000000 0.000000 0.000000 0.000000 0.000000 48.154522 65.561221 -7.455049 -73.493851 -6.499073 -70.826792 -89.606570 -76.669382 104.091560 141.364080 -35.646532 -61.050055 0.000000 0.000000 0.000000 0.000000 0.000000 0.000000 -168.357379 20.517929 42.476425 144.082777 -15.564755 70.855673 -49.150414 27.792203 54.233132 0.000000 0.000000 0.000000 -130.158833 21.275198 34.835840 156.536115 -59.194317 93.515515 9.503544 15.359388 -4.113756 0.000000 0.000000 0.000000
21.853931 28.159327 370.690691 21.568447 -3.503904 -30.867090 -0.656346 0.451132 32.163960 -0.401526 0.302885 0.876073 -9.170639 -17.319353 4.984803 0.000000 0.000000 0.000000 -145.357967 -2.445352 22.521840 143.105369 -3.077529 44.034620 14.025867 -14.984589 41.684390 -9.967462 26.320763 -2.598359 0.000000 0.000000 0.000000 0.000000 0.000000 0.000000 48.736467 62.343773 -6.346161 -65.106826 6.134055 -62.880984 -102.561459 57.798960 46.466578 24.307207 -37.653563 -6.725971 0.000000 0.000000 0.000000 0.000000 0.000000 0.000000 -164.616073 18.235277 44.849450 144.576104 -16.754586 76.966988 -60.640317 25.881263 60.866652 0.000000 0.000000 0.000000 -122.485554 19.472832 40.074040 152.335153 -57.707787 97.547579 2.458541 6.006085 -4.400487 0.000000 0.000000 0.000000
19.743893 33.644152 369.950157 14.752794 -7.341484 -39.148464 -0.216190 -0.282265 40.601039 -0.468029 -0.071794 0.614322 -12.506482 -17.204794 6.455705 0.000000 0.000000 0.000000 -130.506447 -10.078552 21.344812 142.270534 -0.628316 35.403292 19.762799 -17.724008 31.330319 -24.299651 29.624721 19.275637 0.000000 0.000000 0.000000 0.000000 0.000000 0.000000 44.759678 57.566379 -3.376563 -57.144001 12.157520 -51.438430 -63.423583 44.957206 20.611938 7.090449 -26.089841 -16.343407 0.000000 0.000000 0.000000 0.000000 0.000000 0.000000 -159.813197 13.122772 48.220272 145.377768 -21.238108 85.923540 -64.440249 23.154826 61.956373 0.000000 0.000000 0.000000 -126.100821 15.497988 52.122790 149.322823 -49.038497 101.202185 -12.733532 -27.654720 -6.353495 0.000000 0.000000 0.000000
17.180446 39.776121 369.843539 5.665571 -13.624541 -40.558181 -0.170918 -0.259790 41.373128 -0.225972 -0.033650 0.189758 -14.534264 -13.759353 8.022092 0.000000 0.000000 0.000000 -105.380334 -20.270587 20.881387 134.149519 -1.164004 20.872899 19.047344 -19.301122 28.452747 -30.484283 31.718873 28.609124 0.000000 0.000000 0.000000 0.000000 0.000000 0.000000 25.400316 51.647515 3.689544 -40.595986 12.193942 -35.567918 -41.312208 34.532617 7.013424 -8.161741 -15.660524 -16.899570 0.000000 0.000000 0.000000 0.000000 0.000000 0.000000 -147.395750 20.117217 79.270119 140.060517 -42.352384 111.142715 -58.291803 22.622857 55.558920 0.000000 0.000000 0.000000 -127.133944 17.603631 74.430402 136.290729 -48.690633 103.804213 -39.433321 -64.222564 -18.785939 0.000000 0.000000 0.000000
14.450227 45.608662 370.035080 -3.910453 -20.164206 -39.960100 -0.229932 0.004593 39.023424 0.226516 0.073637 -0.273379 -15.946998 -8.018470 10.196640 0.000000 0.000000 0.000000 -70.887028 -25.335092 24.292828 116.468163 1.651829 5.284555 18.706544 -20.317340 27.384226 -37.869839 35.096341 34.033441 0.000000 0.000000 0.000000 0.000000 0.000000 0.000000 -0.400992 26.834047 2.816040 -19.481858 26.153354 -7.492407 -28.999279 28.178698 0.275097 -8.156956 -10.664411 -14.802401 0.000000 0.000000 0.000000 0.000000 0.000000 0.000000 -49.234537 65.264887 62.530470 -23.990489 -49.046458 -6.675628 -43.799014 25.035247 47.556300 0.000000 0.000000 0.000000 -127.137623 24.234388 99.765189 116.161821 -60.343841 99.017992 159.696413 -83.285958 -154.567792 0.000000 0.000000 0.000000
